<svg width="250" height="173" viewBox="0 0 250 173" fill="none" xmlns="http://www.w3.org/2000/svg">
<path d="M0 100.819L124.749 172.832V144.026L0 72.0137V100.819Z" fill="#001F54"/>
<path d="M124.749 144.025L199.599 100.818V129.624L124.749 172.831V144.025Z" fill="#001F54"/>
<path d="M99.7996 100.819L149.699 72.0137L174.649 86.4184L124.749 115.224L99.7996 100.819Z" fill="#001F54"/>
<path d="M49.8997 72.0129V43.2109L74.8495 57.6119V86.4177L49.8997 72.0129Z" fill="#001F54"/>
<path d="M74.8496 57.6104L124.749 28.8047V57.6104L74.8496 86.4161V57.6104Z" fill="#001F54"/>
<path d="M174.649 57.6104V86.4161L124.749 57.6104V28.8047L174.649 57.6104Z" fill="#001F54"/>
<path d="M149.699 14.4047L174.649 0L199.599 14.4047L174.649 28.8057L149.699 14.4047Z" fill="#001F54"/>
<path d="M174.649 57.611L249.499 14.4043V72.012L199.599 100.818L174.649 86.4167V57.611Z" fill="#001F54"/>
</svg>
