<svg width="501" height="501" viewBox="0 0 501 501" fill="none" xmlns="http://www.w3.org/2000/svg">
<path d="M248.09 484.264C377.441 484.264 482.3 423.724 482.3 349.044C482.3 274.364 377.441 213.824 248.09 213.824C118.739 213.824 13.88 274.364 13.88 349.044C13.88 423.724 118.739 484.264 248.09 484.264Z" fill="#455A64"/>
<path d="M413.71 253.434C328.71 204.354 194.62 200.894 102.71 243.044L431.71 433.044C504.7 379.904 498.71 302.504 413.71 253.434Z" fill="#40C4FF"/>
<path opacity="0.1" d="M413.71 253.434C328.71 204.354 194.62 200.894 102.71 243.044L431.71 433.044C504.7 379.904 498.71 302.504 413.71 253.434Z" fill="#0E0E0E"/>
<path d="M82.49 253.434C49.06 272.734 27.86 296.434 18.87 321.294L296.18 481.394C339.25 476.204 380.28 463.964 413.72 444.664C419.919 441.094 425.927 437.202 431.72 433.004L102.72 243.004C95.7067 246.231 88.9633 249.707 82.49 253.434Z" fill="#F0F0F0"/>
<path d="M269.9 466.224L379.58 402.904L383.64 405.254L273.96 468.574L269.9 466.224Z" fill="#E6E6E6"/>
<path d="M156.16 400.564L265.84 337.244L269.9 339.584L160.22 402.904L156.16 400.564Z" fill="#E6E6E6"/>
<path d="M42.42 334.894L152.1 271.574L156.16 273.924L46.48 337.244L42.42 334.894Z" fill="#E6E6E6"/>
<path d="M275.2 483.364C282.233 482.897 289.233 482.231 296.2 481.364L18.86 321.294C17.4414 325.239 16.315 329.283 15.49 333.394L275.2 483.364Z" fill="#E0E0E0"/>
<path opacity="0.07" d="M106.27 329.874C131.327 329.874 151.64 318.148 151.64 303.684C151.64 289.219 131.327 277.494 106.27 277.494C81.2129 277.494 60.9 289.219 60.9 303.684C60.9 318.148 81.2129 329.874 106.27 329.874Z" fill="#0E0E0E"/>
<path d="M221.19 287.944L152.1 248.124L217.03 210.804L286.15 250.514L221.19 287.944Z" fill="#FAFAFA"/>
<path d="M152.1 248.124L221.19 287.944V292.684L152.1 252.814V248.124Z" fill="#F0F0F0"/>
<path d="M286.15 250.524L221.19 287.944V292.684L286.15 255.164V250.524Z" fill="#E0E0E0"/>
<path d="M221.14 278.614L268.93 251.014V48.394L221.14 75.994V278.614Z" fill="#40C4FF"/>
<path opacity="0.65" d="M221.14 278.614L268.93 251.014V48.394L221.14 75.994V278.614Z" fill="#FCFCFC"/>
<path d="M221.14 75.9938L168.99 45.8838V248.504L221.14 278.614V75.9938Z" fill="#40C4FF"/>
<path opacity="0.8" d="M221.14 75.9938L168.99 45.8838V248.504L221.14 278.614V75.9938Z" fill="#FCFCFC"/>
<path d="M268.93 48.3939L216.79 18.2939L168.99 45.8839L221.14 75.9939L268.93 48.3939Z" fill="#40C4FF"/>
<path opacity="0.9" d="M268.93 48.3939L216.79 18.2939L168.99 45.8839L221.14 75.9939L268.93 48.3939Z" fill="#FCFCFC"/>
<path d="M188.51 259.794V239.724L202.02 247.494V267.554L188.51 259.794Z" fill="#37474F"/>
<path d="M194.41 243.114L195.72 243.874V263.944L194.41 263.184V243.114Z" fill="#40C4FF"/>
<path opacity="0.8" d="M194.41 243.114L195.72 243.874V263.944L194.41 263.184V243.114Z" fill="#FCFCFC"/>
<path d="M215.68 266.774V255.584L206.74 250.424V261.614L215.68 266.774Z" fill="#40C4FF"/>
<path d="M215.68 245.334V234.144L206.74 228.984V240.174L215.68 245.334Z" fill="#40C4FF"/>
<path d="M215.68 224.194V213.004L206.74 207.844V219.034L215.68 224.194Z" fill="#40C4FF"/>
<path d="M215.68 203.054V191.864L206.74 186.704V197.894L215.68 203.054Z" fill="#40C4FF"/>
<path d="M215.68 181.914V170.724L206.74 165.564V176.754L215.68 181.914Z" fill="#40C4FF"/>
<path d="M215.68 160.784V149.594L206.74 144.434V155.614L215.68 160.784Z" fill="#40C4FF"/>
<path d="M215.68 139.644V128.454L206.74 123.294V134.474L215.68 139.644Z" fill="#40C4FF"/>
<path d="M215.68 118.654V107.464L206.74 102.304V113.494L215.68 118.654Z" fill="#40C4FF"/>
<path d="M215.68 97.6737V86.4837L206.74 81.3237V92.5037L215.68 97.6737Z" fill="#40C4FF"/>
<path d="M183.41 248.154V236.964L174.47 231.804V242.994L183.41 248.154Z" fill="#40C4FF"/>
<path d="M183.41 226.714V215.524L174.47 210.364V221.554L183.41 226.714Z" fill="#40C4FF"/>
<path d="M183.41 205.534V194.344L174.47 189.184V200.374L183.41 205.534Z" fill="#40C4FF"/>
<path d="M183.41 184.364V173.174L174.47 168.014V179.204L183.41 184.364Z" fill="#40C4FF"/>
<path d="M183.41 163.184V151.994L174.47 146.834V158.024L183.41 163.184Z" fill="#40C4FF"/>
<path d="M183.41 142.014V130.824L174.47 125.664V136.854L183.41 142.014Z" fill="#40C4FF"/>
<path d="M183.41 120.834V109.644L174.47 104.484V115.674L183.41 120.834Z" fill="#40C4FF"/>
<path d="M183.41 99.6737V88.4837L174.47 83.3237V94.5137L183.41 99.6737Z" fill="#40C4FF"/>
<path d="M183.41 78.5141V67.3241L174.47 62.1641V73.3441L183.41 78.5141Z" fill="#40C4FF"/>
<g opacity="0.15">
<path d="M215.68 266.774V255.584L206.74 250.424V261.614L215.68 266.774Z" fill="#0E0E0E"/>
<path d="M215.68 245.334V234.144L206.74 228.984V240.174L215.68 245.334Z" fill="#0E0E0E"/>
<path d="M215.68 224.194V213.004L206.74 207.844V219.034L215.68 224.194Z" fill="#0E0E0E"/>
<path d="M215.68 203.054V191.864L206.74 186.704V197.894L215.68 203.054Z" fill="#0E0E0E"/>
<path d="M215.68 181.914V170.724L206.74 165.564V176.754L215.68 181.914Z" fill="#0E0E0E"/>
<path d="M215.68 160.784V149.594L206.74 144.434V155.614L215.68 160.784Z" fill="#0E0E0E"/>
<path d="M215.68 139.644V128.454L206.74 123.294V134.474L215.68 139.644Z" fill="#0E0E0E"/>
<path d="M215.68 118.654V107.464L206.74 102.304V113.494L215.68 118.654Z" fill="#0E0E0E"/>
<path d="M215.68 97.6742V86.4842L206.74 81.3242V92.5042L215.68 97.6742Z" fill="#0E0E0E"/>
<path d="M183.41 248.154V236.964L174.47 231.804V242.994L183.41 248.154Z" fill="#0E0E0E"/>
<path d="M183.41 226.714V215.524L174.47 210.364V221.554L183.41 226.714Z" fill="#0E0E0E"/>
<path d="M183.41 205.534V194.344L174.47 189.184V200.374L183.41 205.534Z" fill="#0E0E0E"/>
<path d="M183.41 184.364V173.174L174.47 168.014V179.204L183.41 184.364Z" fill="#0E0E0E"/>
<path d="M183.41 163.184V151.994L174.47 146.834V158.024L183.41 163.184Z" fill="#0E0E0E"/>
<path d="M183.41 142.014V130.824L174.47 125.664V136.854L183.41 142.014Z" fill="#0E0E0E"/>
<path d="M183.41 120.834V109.644L174.47 104.484V115.674L183.41 120.834Z" fill="#0E0E0E"/>
<path d="M183.41 99.6742V88.4842L174.47 83.3242V94.5142L183.41 99.6742Z" fill="#0E0E0E"/>
<path d="M183.41 78.5141V67.3241L174.47 62.1641V73.3441L183.41 78.5141Z" fill="#0E0E0E"/>
</g>
<path d="M188.51 69.7041L193.73 72.7041V232.674L188.51 229.674V69.7041Z" fill="#40C4FF"/>
<path d="M196.8 74.4341L202.02 77.4341V237.404L196.8 234.404V74.4341Z" fill="#40C4FF"/>
<g opacity="0.3">
<path d="M188.51 69.7041L193.73 72.7041V232.674L188.51 229.674V69.7041Z" fill="#0E0E0E"/>
<path d="M196.8 74.4341L202.02 77.4341V237.404L196.8 234.404V74.4341Z" fill="#0E0E0E"/>
</g>
<path d="M177.68 45.884L216.79 23.314L260.24 48.394L221.14 70.974L177.68 45.884Z" fill="#40C4FF"/>
<path opacity="0.6" d="M177.68 45.884L216.79 23.314L260.24 48.394L221.14 70.974L177.68 45.884Z" fill="#FCFCFC"/>
<path d="M216.79 23.314V28.324L255.9 50.904L260.24 48.394L216.79 23.314Z" fill="#40C4FF"/>
<path opacity="0.7" d="M216.79 23.314V28.324L255.9 50.904L260.24 48.394L216.79 23.314Z" fill="#FCFCFC"/>
<path d="M216.79 23.314L177.68 45.884L182.03 48.394L216.79 28.324V23.314Z" fill="#40C4FF"/>
<path opacity="0.8" d="M216.79 23.314L177.68 45.884L182.03 48.394L216.79 28.324V23.314Z" fill="#FCFCFC"/>
<path d="M226.67 266.774V255.584L235.61 250.424V261.614L226.67 266.774Z" fill="#40C4FF"/>
<path d="M240.57 258.784V247.594L249.5 242.434V253.624L240.57 258.784Z" fill="#40C4FF"/>
<path d="M254.47 250.804V239.614L263.41 234.454V245.644L254.47 250.804Z" fill="#40C4FF"/>
<path d="M226.67 245.334V234.144L235.61 228.984V240.174L226.67 245.334Z" fill="#40C4FF"/>
<path d="M240.57 237.344V226.164L249.5 221.004V232.184L240.57 237.344Z" fill="#40C4FF"/>
<path d="M254.47 229.364V218.174L263.41 213.014V224.204L254.47 229.364Z" fill="#40C4FF"/>
<path d="M226.67 224.194V213.004L235.61 207.844V219.034L226.67 224.194Z" fill="#40C4FF"/>
<path d="M240.57 216.194V205.004L249.5 199.844V211.034L240.57 216.194Z" fill="#40C4FF"/>
<path d="M254.47 208.184V196.994L263.41 191.834V203.024L254.47 208.184Z" fill="#40C4FF"/>
<path d="M226.67 203.054V191.864L235.61 186.704V197.894L226.67 203.054Z" fill="#40C4FF"/>
<path d="M240.57 195.034V183.844L249.5 178.684V189.874L240.57 195.034Z" fill="#40C4FF"/>
<path d="M254.47 187.014V175.824L263.41 170.664V181.854L254.47 187.014Z" fill="#40C4FF"/>
<path d="M226.67 181.914V170.724L235.61 165.564V176.754L226.67 181.914Z" fill="#40C4FF"/>
<path d="M240.57 173.874V162.684L249.5 157.524V168.714L240.57 173.874Z" fill="#40C4FF"/>
<path d="M254.47 165.834V154.654L263.41 149.484V160.674L254.47 165.834Z" fill="#40C4FF"/>
<path d="M226.67 160.784V149.594L235.61 144.434V155.614L226.67 160.784Z" fill="#40C4FF"/>
<path d="M240.57 152.724V141.534L249.5 136.374V147.564L240.57 152.724Z" fill="#40C4FF"/>
<path d="M254.47 144.664V133.474L263.41 128.314V139.504L254.47 144.664Z" fill="#40C4FF"/>
<path d="M226.67 139.644V128.454L235.61 123.294V134.474L226.67 139.644Z" fill="#40C4FF"/>
<path d="M240.57 131.564V120.374L249.5 115.214V126.404L240.57 131.564Z" fill="#40C4FF"/>
<path d="M254.47 123.484V112.294L263.41 107.134V118.324L254.47 123.484Z" fill="#40C4FF"/>
<path d="M226.67 118.654V107.464L235.61 102.304V113.494L226.67 118.654Z" fill="#40C4FF"/>
<path d="M240.57 110.484V99.3038L249.5 94.1338V105.324L240.57 110.484Z" fill="#40C4FF"/>
<path d="M254.47 102.324V91.1341L263.41 85.9741V97.1641L254.47 102.324Z" fill="#40C4FF"/>
<path d="M226.67 97.6737V86.4837L235.61 81.3237V92.5037L226.67 97.6737Z" fill="#40C4FF"/>
<path d="M240.57 89.414V78.224L249.5 73.064V84.254L240.57 89.414Z" fill="#40C4FF"/>
<path d="M254.47 81.164V69.974L263.41 64.814V76.004L254.47 81.164Z" fill="#40C4FF"/>
<g opacity="0.3">
<path d="M226.67 266.774V255.584L235.61 250.424V261.614L226.67 266.774Z" fill="#0E0E0E"/>
<path d="M240.57 258.784V247.594L249.5 242.434V253.624L240.57 258.784Z" fill="#0E0E0E"/>
<path d="M254.47 250.804V239.614L263.41 234.454V245.644L254.47 250.804Z" fill="#0E0E0E"/>
<path d="M226.67 245.334V234.144L235.61 228.984V240.174L226.67 245.334Z" fill="#0E0E0E"/>
<path d="M240.57 237.344V226.164L249.5 221.004V232.184L240.57 237.344Z" fill="#0E0E0E"/>
<path d="M254.47 229.364V218.174L263.41 213.014V224.204L254.47 229.364Z" fill="#0E0E0E"/>
<path d="M226.67 224.194V213.004L235.61 207.844V219.034L226.67 224.194Z" fill="#0E0E0E"/>
<path d="M240.57 216.194V205.004L249.5 199.844V211.034L240.57 216.194Z" fill="#0E0E0E"/>
<path d="M254.47 208.184V196.994L263.41 191.834V203.024L254.47 208.184Z" fill="#0E0E0E"/>
<path d="M226.67 203.054V191.864L235.61 186.704V197.894L226.67 203.054Z" fill="#0E0E0E"/>
<path d="M240.57 195.034V183.844L249.5 178.684V189.874L240.57 195.034Z" fill="#0E0E0E"/>
<path d="M254.47 187.014V175.824L263.41 170.664V181.854L254.47 187.014Z" fill="#0E0E0E"/>
<path d="M226.67 181.914V170.724L235.61 165.564V176.754L226.67 181.914Z" fill="#0E0E0E"/>
<path d="M240.57 173.874V162.684L249.5 157.524V168.714L240.57 173.874Z" fill="#0E0E0E"/>
<path d="M254.47 165.834V154.654L263.41 149.484V160.674L254.47 165.834Z" fill="#0E0E0E"/>
<path d="M226.67 160.784V149.594L235.61 144.434V155.614L226.67 160.784Z" fill="#0E0E0E"/>
<path d="M240.57 152.724V141.534L249.5 136.374V147.564L240.57 152.724Z" fill="#0E0E0E"/>
<path d="M254.47 144.664V133.474L263.41 128.314V139.504L254.47 144.664Z" fill="#0E0E0E"/>
<path d="M226.67 139.644V128.454L235.61 123.294V134.474L226.67 139.644Z" fill="#0E0E0E"/>
<path d="M240.57 131.564V120.374L249.5 115.214V126.404L240.57 131.564Z" fill="#0E0E0E"/>
<path d="M254.47 123.484V112.294L263.41 107.134V118.324L254.47 123.484Z" fill="#0E0E0E"/>
<path d="M226.67 118.654V107.464L235.61 102.304V113.494L226.67 118.654Z" fill="#0E0E0E"/>
<path d="M240.57 110.484V99.3038L249.5 94.1338V105.324L240.57 110.484Z" fill="#0E0E0E"/>
<path d="M254.47 102.324V91.1341L263.41 85.9741V97.1641L254.47 102.324Z" fill="#0E0E0E"/>
<path d="M226.67 97.6737V86.4837L235.61 81.3237V92.5037L226.67 97.6737Z" fill="#0E0E0E"/>
<path d="M240.57 89.414V78.224L249.5 73.064V84.254L240.57 89.414Z" fill="#0E0E0E"/>
<path d="M254.47 81.164V69.974L263.41 64.814V76.004L254.47 81.164Z" fill="#0E0E0E"/>
</g>
<path opacity="0.05" d="M216.84 23.3037L211.93 31.1337L251.04 53.7137L260.24 48.3937L216.84 23.3037Z" fill="#0E0E0E"/>
<path d="M282.436 240.697L275.794 253.789L276.864 254.332L283.506 241.24L282.436 240.697Z" fill="#263238"/>
<path d="M270.126 239.646L269.105 240.278L275.585 250.745L276.605 250.113L270.126 239.646Z" fill="#263238"/>
<path d="M277.34 238.424V269.984C277.329 270.071 277.297 270.154 277.247 270.225C277.196 270.297 277.128 270.355 277.05 270.394C276.829 270.502 276.586 270.559 276.34 270.559C276.094 270.559 275.851 270.502 275.63 270.394C275.549 270.357 275.479 270.3 275.426 270.228C275.374 270.156 275.341 270.072 275.33 269.984V238.424H277.34Z" fill="#263238"/>
<path d="M286.54 243.254C294.631 243.254 301.19 236.695 301.19 228.604C301.19 220.513 294.631 213.954 286.54 213.954C278.449 213.954 271.89 220.513 271.89 228.604C271.89 236.695 278.449 243.254 286.54 243.254Z" fill="#455A64"/>
<path d="M291.14 224.904C293.03 218.954 295.04 216.634 293.76 215.904C291.333 214.521 288.562 213.861 285.772 214.001C282.982 214.141 280.291 215.076 278.015 216.695C275.739 218.314 273.973 220.55 272.926 223.14C271.878 225.729 271.593 228.564 272.104 231.31C272.614 234.056 273.899 236.599 275.807 238.639C277.715 240.679 280.167 242.131 282.872 242.824C285.578 243.517 288.426 243.422 291.079 242.551C293.733 241.679 296.082 240.067 297.85 237.904C293.49 239.194 288.69 232.574 291.14 224.904Z" fill="#37474F"/>
<path d="M273.636 234.42C274.547 228.805 270.734 223.514 265.119 222.603C259.504 221.691 254.214 225.504 253.302 231.119C252.391 236.734 256.204 242.025 261.819 242.936C267.434 243.848 272.725 240.035 273.636 234.42Z" fill="#455A64"/>
<path d="M263.49 222.454C261.336 222.454 259.236 223.133 257.49 224.394C257.21 230.694 262.55 236.824 261.06 238.884C259.57 240.944 255.89 239.684 254.61 237.934C255.519 239.496 256.822 240.791 258.389 241.689C259.957 242.588 261.733 243.059 263.539 243.054C265.346 243.049 267.12 242.57 268.682 241.663C270.245 240.756 271.542 239.454 272.442 237.888C273.343 236.322 273.815 234.546 273.813 232.739C273.81 230.933 273.332 229.159 272.427 227.595C271.522 226.031 270.222 224.733 268.657 223.831C267.092 222.928 265.317 222.454 263.51 222.454H263.49Z" fill="#37474F"/>
<path d="M294.717 225.978C297.114 215.824 290.825 205.651 280.672 203.254C270.518 200.858 260.344 207.146 257.948 217.3C255.551 227.453 261.84 237.627 271.993 240.024C282.147 242.42 292.321 236.132 294.717 225.978Z" fill="#455A64"/>
<path d="M294.73 225.964C294.013 229.019 292.545 231.848 290.46 234.194C288.376 236.54 285.739 238.33 282.789 239.401C279.84 240.473 276.669 240.792 273.565 240.331C270.46 239.87 267.52 238.643 265.009 236.76C262.498 234.877 260.495 232.399 259.182 229.548C257.869 226.698 257.287 223.565 257.489 220.433C257.691 217.301 258.669 214.268 260.337 211.61C262.005 208.951 264.308 206.749 267.04 205.204C265.404 206.133 263.914 207.299 262.62 208.664C262.29 210.081 262.122 211.53 262.12 212.984C262.117 216.766 263.249 220.461 265.37 223.593C267.49 226.724 270.502 229.146 274.015 230.547C277.528 231.947 281.38 232.261 285.073 231.448C288.766 230.634 292.13 228.731 294.73 225.984V225.964Z" fill="#37474F"/>
<path d="M383.61 381.754L273.96 318.404L363.32 266.964L473 330.214L383.61 381.754Z" fill="#FAFAFA"/>
<path d="M273.96 318.404L383.61 381.754V386.494L273.96 323.094V318.404Z" fill="#F0F0F0"/>
<path d="M473 330.214L383.61 381.754V386.494L473 334.854V330.214Z" fill="#E0E0E0"/>
<path d="M292.24 61.6538L322.7 79.2438V337.244L292.24 319.654V61.6538Z" fill="#40C4FF"/>
<path opacity="0.8" d="M292.24 61.6538L322.7 79.2438V337.244L292.24 319.654V61.6538Z" fill="#FCFCFC"/>
<path d="M353.17 96.8237L383.63 114.414V372.424L353.17 354.834V96.8237Z" fill="#40C4FF"/>
<path opacity="0.8" d="M353.17 96.8237L383.63 114.414V372.424L353.17 354.834V96.8237Z" fill="#FCFCFC"/>
<path d="M302.39 302.064V313.794L312.55 319.654V307.924L302.39 302.064Z" fill="#40C4FF"/>
<path d="M302.39 284.474V296.204L312.55 302.064V290.334L302.39 284.474Z" fill="#40C4FF"/>
<path d="M302.39 261.024V272.754L312.55 278.614V266.884L302.39 261.024Z" fill="#40C4FF"/>
<path d="M302.39 243.434V255.164L312.55 261.024V249.294L302.39 243.434Z" fill="#40C4FF"/>
<path d="M302.39 137.874V149.594L312.55 155.464V143.734L302.39 137.874Z" fill="#40C4FF"/>
<path d="M302.39 120.284V132.004L312.55 137.874V126.144L302.39 120.284Z" fill="#40C4FF"/>
<path d="M302.39 96.8237V108.554L312.55 114.414V102.694L302.39 96.8237Z" fill="#40C4FF"/>
<path d="M302.39 79.2441V90.9641L312.55 96.8241V85.1041L302.39 79.2441Z" fill="#40C4FF"/>
<path d="M363.32 337.244V348.974L373.48 354.834V343.104L363.32 337.244Z" fill="#40C4FF"/>
<path d="M363.32 319.654V331.384L373.48 337.244V325.524L363.32 319.654Z" fill="#40C4FF"/>
<path d="M363.32 296.204V307.934L373.48 313.794V302.064L363.32 296.204Z" fill="#40C4FF"/>
<path d="M363.32 278.614V290.344L373.48 296.204V284.474L363.32 278.614Z" fill="#40C4FF"/>
<path d="M363.32 173.054V184.774L373.48 190.644V178.914L363.32 173.054Z" fill="#40C4FF"/>
<path d="M363.32 155.464V167.184L373.48 173.054V161.324L363.32 155.464Z" fill="#40C4FF"/>
<path d="M363.32 132.014V143.734L373.48 149.594V137.874L363.32 132.014Z" fill="#40C4FF"/>
<path d="M363.32 114.424V126.144L373.48 132.014V120.284L363.32 114.424Z" fill="#40C4FF"/>
<path d="M302.39 219.834V231.564L312.55 237.424V225.694L302.39 219.834Z" fill="#40C4FF"/>
<path d="M302.39 202.244V213.974L312.55 219.834V208.114L302.39 202.244Z" fill="#40C4FF"/>
<path d="M302.39 178.794V190.524L312.55 196.384V184.654L302.39 178.794Z" fill="#40C4FF"/>
<path d="M302.39 161.204V172.934L312.55 178.794V167.064L302.39 161.204Z" fill="#40C4FF"/>
<path d="M363.32 255.014V266.744L373.48 272.604V260.884L363.32 255.014Z" fill="#40C4FF"/>
<path d="M363.32 237.434V249.154L373.48 255.024V243.294L363.32 237.434Z" fill="#40C4FF"/>
<path d="M363.32 213.974V225.704L373.48 231.564V219.844L363.32 213.974Z" fill="#40C4FF"/>
<path d="M363.32 196.384V208.114L373.48 213.974V202.254L363.32 196.384Z" fill="#40C4FF"/>
<g opacity="0.15">
<path d="M302.39 302.064V313.794L312.55 319.654V307.924L302.39 302.064Z" fill="#0E0E0E"/>
<path d="M302.39 284.474V296.204L312.55 302.064V290.334L302.39 284.474Z" fill="#0E0E0E"/>
<path d="M302.39 261.024V272.754L312.55 278.614V266.884L302.39 261.024Z" fill="#0E0E0E"/>
<path d="M302.39 243.434V255.164L312.55 261.024V249.294L302.39 243.434Z" fill="#0E0E0E"/>
<path d="M302.39 137.874V149.594L312.55 155.464V143.734L302.39 137.874Z" fill="#0E0E0E"/>
<path d="M302.39 120.284V132.004L312.55 137.874V126.144L302.39 120.284Z" fill="#0E0E0E"/>
<path d="M302.39 96.8242V108.554L312.55 114.414V102.694L302.39 96.8242Z" fill="#0E0E0E"/>
<path d="M302.39 79.2441V90.9641L312.55 96.8241V85.1041L302.39 79.2441Z" fill="#0E0E0E"/>
<path d="M363.32 337.244V348.974L373.48 354.834V343.104L363.32 337.244Z" fill="#0E0E0E"/>
<path d="M363.32 319.654V331.384L373.48 337.244V325.524L363.32 319.654Z" fill="#0E0E0E"/>
<path d="M363.32 296.204V307.934L373.48 313.794V302.064L363.32 296.204Z" fill="#0E0E0E"/>
<path d="M363.32 278.614V290.344L373.48 296.204V284.474L363.32 278.614Z" fill="#0E0E0E"/>
<path d="M363.32 173.054V184.774L373.48 190.644V178.914L363.32 173.054Z" fill="#0E0E0E"/>
<path d="M363.32 155.464V167.184L373.48 173.054V161.324L363.32 155.464Z" fill="#0E0E0E"/>
<path d="M363.32 132.014V143.734L373.48 149.594V137.874L363.32 132.014Z" fill="#0E0E0E"/>
<path d="M363.32 114.424V126.144L373.48 132.014V120.284L363.32 114.424Z" fill="#0E0E0E"/>
<path d="M302.39 219.834V231.564L312.55 237.424V225.694L302.39 219.834Z" fill="#0E0E0E"/>
<path d="M302.39 202.244V213.974L312.55 219.834V208.114L302.39 202.244Z" fill="#0E0E0E"/>
<path d="M302.39 178.794V190.524L312.55 196.384V184.654L302.39 178.794Z" fill="#0E0E0E"/>
<path d="M302.39 161.204V172.934L312.55 178.794V167.064L302.39 161.204Z" fill="#0E0E0E"/>
<path d="M363.32 255.014V266.744L373.48 272.604V260.884L363.32 255.014Z" fill="#0E0E0E"/>
<path d="M363.32 237.434V249.154L373.48 255.024V243.294L363.32 237.434Z" fill="#0E0E0E"/>
<path d="M363.32 213.974V225.704L373.48 231.564V219.844L363.32 213.974Z" fill="#0E0E0E"/>
<path d="M363.32 196.384V208.114L373.48 213.974V202.254L363.32 196.384Z" fill="#0E0E0E"/>
</g>
<path d="M383.63 114.414L454.72 73.374V331.374L383.63 372.424V114.414Z" fill="#40C4FF"/>
<path opacity="0.65" d="M383.63 114.414L454.72 73.374V331.374L383.63 372.424V114.414Z" fill="#FCFCFC"/>
<path d="M403.94 337.244V348.974L393.79 354.834V343.104L403.94 337.244Z" fill="#40C4FF"/>
<path d="M403.94 319.654V331.384L393.79 337.244V325.524L403.94 319.654Z" fill="#40C4FF"/>
<path d="M403.94 296.204V307.934L393.79 313.794V302.064L403.94 296.204Z" fill="#40C4FF"/>
<path d="M403.94 278.614V290.344L393.79 296.204V284.474L403.94 278.614Z" fill="#40C4FF"/>
<path d="M403.94 173.054V184.774L393.79 190.644V178.914L403.94 173.054Z" fill="#40C4FF"/>
<path d="M403.94 155.464V167.184L393.79 173.054V161.324L403.94 155.464Z" fill="#40C4FF"/>
<path d="M403.94 132.014V143.734L393.79 149.594V137.874L403.94 132.014Z" fill="#40C4FF"/>
<path d="M403.94 114.424V126.144L393.79 132.014V120.284L403.94 114.424Z" fill="#40C4FF"/>
<path d="M424.25 325.594V337.314L414.1 343.184V331.454L424.25 325.594Z" fill="#40C4FF"/>
<path d="M424.25 308.004V319.734L414.1 325.594V313.864L424.25 308.004Z" fill="#40C4FF"/>
<path d="M424.25 284.554V296.274L414.1 302.144V290.414L424.25 284.554Z" fill="#40C4FF"/>
<path d="M424.25 266.964V278.694L414.1 284.554V272.824L424.25 266.964Z" fill="#40C4FF"/>
<path d="M424.25 161.394V173.124L414.1 178.984V167.264L424.25 161.394Z" fill="#40C4FF"/>
<path d="M424.25 143.814V155.534L414.1 161.394V149.674L424.25 143.814Z" fill="#40C4FF"/>
<path d="M424.25 120.354V132.084L414.1 137.944V126.224L424.25 120.354Z" fill="#40C4FF"/>
<path d="M424.25 102.764V114.494L414.1 120.354V108.634L424.25 102.764Z" fill="#40C4FF"/>
<path d="M444.57 313.944V325.664L434.41 331.524V319.804L444.57 313.944Z" fill="#40C4FF"/>
<path d="M444.57 296.354V308.074L434.41 313.944V302.214L444.57 296.354Z" fill="#40C4FF"/>
<path d="M444.57 272.894V284.624L434.41 290.484V278.764L444.57 272.894Z" fill="#40C4FF"/>
<path d="M444.57 255.314V267.034L434.41 272.894V261.174L444.57 255.314Z" fill="#40C4FF"/>
<path d="M444.57 149.744V161.474L434.41 167.334V155.604L444.57 149.744Z" fill="#40C4FF"/>
<path d="M444.57 132.154V143.884L434.41 149.744V138.024L444.57 132.154Z" fill="#40C4FF"/>
<path d="M444.57 108.704V120.434L434.41 126.294V114.564L444.57 108.704Z" fill="#40C4FF"/>
<path d="M444.57 91.1138V102.844L434.41 108.704V96.9738L444.57 91.1138Z" fill="#40C4FF"/>
<path d="M403.94 255.014V266.744L393.79 272.604V260.884L403.94 255.014Z" fill="#40C4FF"/>
<path d="M403.94 237.434V249.154L393.79 255.024V243.294L403.94 237.434Z" fill="#40C4FF"/>
<path d="M403.94 213.974V225.704L393.79 231.564V219.844L403.94 213.974Z" fill="#40C4FF"/>
<path d="M403.94 196.384V208.114L393.79 213.974V202.254L403.94 196.384Z" fill="#40C4FF"/>
<path d="M424.25 243.364V255.094L414.1 260.954V249.224L424.25 243.364Z" fill="#40C4FF"/>
<path d="M424.25 225.774V237.504L414.1 243.364V231.644L424.25 225.774Z" fill="#40C4FF"/>
<path d="M424.25 202.324V214.054L414.1 219.914V208.184L424.25 202.324Z" fill="#40C4FF"/>
<path d="M424.25 184.734V196.464L414.1 202.324V190.594L424.25 184.734Z" fill="#40C4FF"/>
<path d="M444.57 231.714V243.434L434.41 249.304V237.574L444.57 231.714Z" fill="#40C4FF"/>
<path d="M444.57 214.124V225.844L434.41 231.714V219.984L444.57 214.124Z" fill="#40C4FF"/>
<path d="M444.57 190.674V202.394L434.41 208.254V196.534L444.57 190.674Z" fill="#40C4FF"/>
<path d="M444.57 173.084V184.804L434.41 190.674V178.944L444.57 173.084Z" fill="#40C4FF"/>
<g opacity="0.3">
<path d="M403.94 337.244V348.974L393.79 354.834V343.104L403.94 337.244Z" fill="#0E0E0E"/>
<path d="M403.94 319.654V331.384L393.79 337.244V325.524L403.94 319.654Z" fill="#0E0E0E"/>
<path d="M403.94 296.204V307.934L393.79 313.794V302.064L403.94 296.204Z" fill="#0E0E0E"/>
<path d="M403.94 278.614V290.344L393.79 296.204V284.474L403.94 278.614Z" fill="#0E0E0E"/>
<path d="M403.94 173.054V184.774L393.79 190.644V178.914L403.94 173.054Z" fill="#0E0E0E"/>
<path d="M403.94 155.464V167.184L393.79 173.054V161.324L403.94 155.464Z" fill="#0E0E0E"/>
<path d="M403.94 132.014V143.734L393.79 149.594V137.874L403.94 132.014Z" fill="#0E0E0E"/>
<path d="M403.94 114.424V126.144L393.79 132.014V120.284L403.94 114.424Z" fill="#0E0E0E"/>
<path d="M424.25 325.594V337.314L414.1 343.184V331.454L424.25 325.594Z" fill="#0E0E0E"/>
<path d="M424.25 308.004V319.734L414.1 325.594V313.864L424.25 308.004Z" fill="#0E0E0E"/>
<path d="M424.25 284.554V296.274L414.1 302.144V290.414L424.25 284.554Z" fill="#0E0E0E"/>
<path d="M424.25 266.964V278.694L414.1 284.554V272.824L424.25 266.964Z" fill="#0E0E0E"/>
<path d="M424.25 161.394V173.124L414.1 178.984V167.264L424.25 161.394Z" fill="#0E0E0E"/>
<path d="M424.25 143.814V155.534L414.1 161.394V149.674L424.25 143.814Z" fill="#0E0E0E"/>
<path d="M424.25 120.354V132.084L414.1 137.944V126.224L424.25 120.354Z" fill="#0E0E0E"/>
<path d="M424.25 102.764V114.494L414.1 120.354V108.634L424.25 102.764Z" fill="#0E0E0E"/>
<path d="M444.57 313.944V325.664L434.41 331.524V319.804L444.57 313.944Z" fill="#0E0E0E"/>
<path d="M444.57 296.354V308.074L434.41 313.944V302.214L444.57 296.354Z" fill="#0E0E0E"/>
<path d="M444.57 272.894V284.624L434.41 290.484V278.764L444.57 272.894Z" fill="#0E0E0E"/>
<path d="M444.57 255.314V267.034L434.41 272.894V261.174L444.57 255.314Z" fill="#0E0E0E"/>
<path d="M444.57 149.744V161.474L434.41 167.334V155.604L444.57 149.744Z" fill="#0E0E0E"/>
<path d="M444.57 132.154V143.884L434.41 149.744V138.024L444.57 132.154Z" fill="#0E0E0E"/>
<path d="M444.57 108.704V120.434L434.41 126.294V114.564L444.57 108.704Z" fill="#0E0E0E"/>
<path d="M444.57 91.1138V102.844L434.41 108.704V96.9738L444.57 91.1138Z" fill="#0E0E0E"/>
<path d="M403.94 255.014V266.744L393.79 272.604V260.884L403.94 255.014Z" fill="#0E0E0E"/>
<path d="M403.94 237.434V249.154L393.79 255.024V243.294L403.94 237.434Z" fill="#0E0E0E"/>
<path d="M403.94 213.974V225.704L393.79 231.564V219.844L403.94 213.974Z" fill="#0E0E0E"/>
<path d="M403.94 196.384V208.114L393.79 213.974V202.254L403.94 196.384Z" fill="#0E0E0E"/>
<path d="M424.25 243.364V255.094L414.1 260.954V249.224L424.25 243.364Z" fill="#0E0E0E"/>
<path d="M424.25 225.774V237.504L414.1 243.364V231.644L424.25 225.774Z" fill="#0E0E0E"/>
<path d="M424.25 202.324V214.054L414.1 219.914V208.184L424.25 202.324Z" fill="#0E0E0E"/>
<path d="M424.25 184.734V196.464L414.1 202.324V190.594L424.25 184.734Z" fill="#0E0E0E"/>
<path d="M444.57 231.714V243.434L434.41 249.304V237.574L444.57 231.714Z" fill="#0E0E0E"/>
<path d="M444.57 214.124V225.844L434.41 231.714V219.984L444.57 214.124Z" fill="#0E0E0E"/>
<path d="M444.57 190.674V202.394L434.41 208.254V196.534L444.57 190.674Z" fill="#0E0E0E"/>
<path d="M444.57 173.084V184.804L434.41 190.674V178.944L444.57 173.084Z" fill="#0E0E0E"/>
</g>
<path d="M322.7 79.2439V337.244L327.84 334.274V76.2739L322.7 79.2439Z" fill="#40C4FF"/>
<path opacity="0.65" d="M322.7 79.2439V337.244L327.84 334.274V76.2739L322.7 79.2439Z" fill="#FCFCFC"/>
<path d="M454.72 73.374L363.32 20.604L292.24 61.654L322.7 79.244L327.84 76.274L358.31 93.854L353.17 96.824L383.63 114.414L454.72 73.374Z" fill="#40C4FF"/>
<path opacity="0.9" d="M454.72 73.374L363.32 20.604L292.24 61.654L322.7 79.244L327.84 76.274L358.31 93.854L353.17 96.824L383.63 114.414L454.72 73.374Z" fill="#FCFCFC"/>
<path d="M363.17 96.8238L368.31 93.8538L327.84 70.5038L322.7 73.4638L302.24 61.6538L363.32 26.3838L444.72 73.3738L383.63 108.644L363.17 96.8238Z" fill="#40C4FF"/>
<path opacity="0.6" d="M363.17 96.8238L368.31 93.8538L327.84 70.5038L322.7 73.4638L302.24 61.6538L363.32 26.3838L444.72 73.3738L383.63 108.644L363.17 96.8238Z" fill="#FCFCFC"/>
<path d="M363.32 26.3838V32.3338L439.56 76.3538L444.72 73.3738L363.32 26.3838Z" fill="#40C4FF"/>
<path opacity="0.7" d="M363.32 26.3838V32.3338L439.56 76.3538L444.72 73.3738L363.32 26.3838Z" fill="#FCFCFC"/>
<path d="M302.24 61.6538L307.47 64.6738L363.32 32.3338V26.3838L302.24 61.6538Z" fill="#40C4FF"/>
<path opacity="0.8" d="M302.24 61.6538L307.47 64.6738L363.32 32.3338V26.3838L302.24 61.6538Z" fill="#FCFCFC"/>
<path opacity="0.05" d="M363.32 26.374L357.35 35.674L433.3 79.964L444.72 73.374L363.32 26.374Z" fill="#0E0E0E"/>
<path d="M327.84 76.2739V334.274L353.17 348.964V96.8239L358.31 93.8539L327.84 76.2739Z" fill="#40C4FF"/>
<path opacity="0.45" d="M327.84 76.2739V334.274L353.17 348.964V96.8239L358.31 93.8539L327.84 76.2739Z" fill="#0E0E0E"/>
<path d="M332.86 337.244V319.654L348.09 328.444V346.024L332.86 337.244Z" fill="#263238"/>
<path d="M344.42 315.964L348.09 318.084V96.8241L344.42 94.7041V315.964Z" fill="#40C4FF"/>
<path d="M334.26 310.114L337.94 312.234V90.974L334.26 88.854V310.114Z" fill="#40C4FF"/>
<path d="M468.328 318.095L461.686 331.187L462.756 331.73L469.398 318.638L468.328 318.095Z" fill="#263238"/>
<path d="M457.053 315.293L456.033 315.929L462.557 326.392L463.577 325.756L457.053 315.293Z" fill="#263238"/>
<path d="M463.25 315.834V347.384C463.242 347.473 463.21 347.559 463.157 347.631C463.104 347.703 463.033 347.76 462.95 347.794C462.73 347.907 462.487 347.966 462.24 347.966C461.993 347.966 461.75 347.907 461.53 347.794C461.45 347.757 461.381 347.7 461.33 347.628C461.279 347.556 461.248 347.472 461.24 347.384V315.834H463.25Z" fill="#263238"/>
<path d="M472.45 320.664C480.541 320.664 487.1 314.105 487.1 306.014C487.1 297.923 480.541 291.364 472.45 291.364C464.359 291.364 457.8 297.923 457.8 306.014C457.8 314.105 464.359 320.664 472.45 320.664Z" fill="#455A64"/>
<path d="M477.04 302.264C478.93 296.314 480.94 293.984 479.67 293.264C477.243 291.891 474.475 291.239 471.691 291.384C468.907 291.53 466.222 292.466 463.951 294.085C461.681 295.703 459.92 297.936 458.874 300.521C457.829 303.105 457.542 305.935 458.049 308.676C458.556 311.418 459.834 313.958 461.734 315.999C463.634 318.039 466.077 319.495 468.776 320.195C471.475 320.895 474.317 320.81 476.97 319.951C479.622 319.092 481.974 317.494 483.75 315.344C479.41 316.604 474.59 309.984 477.04 302.264Z" fill="#37474F"/>
<path d="M449.36 320.464C455.049 320.464 459.66 315.852 459.66 310.164C459.66 304.475 455.049 299.864 449.36 299.864C443.671 299.864 439.06 304.475 439.06 310.164C439.06 315.852 443.671 320.464 449.36 320.464Z" fill="#455A64"/>
<path d="M449.36 299.904C447.206 299.907 445.108 300.586 443.36 301.844C443.09 308.134 448.43 314.274 446.93 316.334C445.43 318.394 441.76 317.134 440.48 315.384C441.389 316.945 442.692 318.24 444.259 319.139C445.827 320.038 447.603 320.508 449.409 320.504C451.216 320.499 452.99 320.019 454.552 319.113C456.115 318.206 457.412 316.904 458.312 315.338C459.213 313.771 459.685 311.996 459.683 310.189C459.68 308.382 459.202 306.608 458.297 305.045C457.392 303.481 456.092 302.183 454.527 301.28C452.962 300.378 451.187 299.903 449.38 299.904H449.36Z" fill="#37474F"/>
<path d="M480.601 303.379C482.997 293.225 476.709 283.051 466.555 280.655C456.401 278.258 446.227 284.547 443.831 294.701C441.434 304.854 447.723 315.028 457.877 317.425C468.03 319.821 478.204 313.533 480.601 303.379Z" fill="#455A64"/>
<path d="M480.63 303.374C479.913 306.43 478.446 309.26 476.362 311.607C474.277 313.954 471.64 315.745 468.69 316.817C465.739 317.889 462.568 318.209 459.462 317.747C456.357 317.286 453.416 316.058 450.905 314.174C448.393 312.291 446.391 309.811 445.078 306.959C443.766 304.107 443.185 300.973 443.388 297.841C443.591 294.708 444.572 291.675 446.241 289.017C447.911 286.358 450.216 284.157 452.95 282.614C451.309 283.54 449.816 284.706 448.52 286.074C448.19 287.49 448.022 288.939 448.02 290.394C448.017 294.176 449.149 297.871 451.27 301.002C453.39 304.133 456.402 306.556 459.915 307.957C463.428 309.357 467.28 309.671 470.973 308.857C474.666 308.044 478.031 306.14 480.63 303.394V303.374Z" fill="#37474F"/>
<path d="M118.95 307.714L125.6 306.204L123.45 295.764L116.65 297.584L118.95 307.714Z" fill="#FFA8A7"/>
<path d="M117.91 309.654C117.52 309.824 117.76 311.394 117.99 311.814C118.492 312.564 119.182 313.171 119.99 313.574C121.171 314.176 122.197 315.042 122.99 316.104C124.326 317.724 125.998 319.034 127.89 319.944C129.127 320.435 130.452 320.662 131.782 320.61C133.111 320.559 134.415 320.229 135.61 319.644C138.17 318.444 138.37 317.694 138.22 316.644L117.91 309.654Z" fill="#455A64"/>
<path d="M125.49 302.364C126.23 303.934 128.17 308.094 131.3 309.864C133.78 311.274 137.09 312.804 138.3 314.734C139.51 316.664 135.05 318.534 133.05 318.634C131.49 318.704 129.43 318.874 127.8 318.034C126.996 317.617 126.236 317.121 125.53 316.554C124.12 315.454 123.04 314.004 122.01 313.114C120.98 312.224 118.88 311.444 118.18 310.304C117.788 309.178 117.648 307.98 117.77 306.794C117.77 305.564 117.62 304.444 118.18 304.244L118.34 304.944C119.117 304.96 119.893 304.907 120.66 304.784C120.98 304.724 121.79 305.614 122.1 305.444C122.41 305.274 121.72 304.594 122.1 304.004C122.464 303.45 122.972 303.005 123.569 302.716C124.165 302.427 124.829 302.305 125.49 302.364Z" fill="#40C4FF"/>
<path opacity="0.3" d="M125.49 302.364C126.23 303.934 128.17 308.094 131.3 309.864C133.78 311.274 137.09 312.804 138.3 314.734C139.51 316.664 135.05 318.534 133.05 318.634C131.49 318.704 129.43 318.874 127.8 318.034C126.996 317.617 126.236 317.121 125.53 316.554C124.12 315.454 123.04 314.004 122.01 313.114C120.98 312.224 118.88 311.444 118.18 310.304C117.788 309.178 117.648 307.98 117.77 306.794C117.77 305.564 117.62 304.444 118.18 304.244L118.34 304.944C119.117 304.96 119.893 304.907 120.66 304.784C120.98 304.724 121.79 305.614 122.1 305.444C122.41 305.274 121.72 304.594 122.1 304.004C122.464 303.45 122.972 303.005 123.569 302.716C124.165 302.427 124.829 302.305 125.49 302.364Z" fill="#0E0E0E"/>
<path d="M127.78 318.034C127.78 318.034 128.08 314.034 131.32 312.184C134.56 310.334 135.92 311.674 136.48 312.004C137.04 312.334 139.75 314.154 138.23 316.684C136.843 317.964 135.092 318.781 133.22 319.023C131.348 319.265 129.447 318.919 127.78 318.034Z" fill="#FAFAFA"/>
<path d="M84.82 280.624L80.63 286.624C80.3407 287.269 80.2958 287.997 80.5037 288.672C80.7117 289.347 81.1582 289.924 81.76 290.294C83.45 291.544 85.67 291.294 86.18 290.704L89.98 286.564L84.82 280.624Z" fill="#FFA8A7"/>
<path d="M76.9899 288.994C76.6099 288.804 75.5699 289.994 75.3999 290.444C75.2688 291.348 75.3405 292.271 75.6099 293.144C75.9715 294.492 76.11 295.891 76.0199 297.284C75.8284 299.216 76.0014 301.166 76.5299 303.034C77.0252 304.943 78.1446 306.632 79.7103 307.831C81.2759 309.031 83.1977 309.673 85.1699 309.654C88.5399 309.654 89.1699 308.294 89.1699 307.514L76.9899 288.994Z" fill="#455A64"/>
<path d="M87.37 290.084C86.66 291.644 85.26 296.084 87.19 299.914C88.49 302.504 89.1 305.024 88.4 307.164C87.7 309.304 79.62 305.914 78.63 304.164C77.6253 302.408 77.1043 300.417 77.12 298.394C77.05 296.614 77.39 295.444 77.2 294.104C77.01 292.764 76.2 290.844 76.65 289.574C77.2589 288.559 78.0812 287.689 79.06 287.024C80.06 286.264 80.74 285.404 81.25 285.704L80.92 286.254C81.2944 286.918 81.8098 287.491 82.43 287.934C82.68 288.134 82.52 289.314 82.85 289.444C83.18 289.574 83.25 288.614 83.91 288.444C84.5821 288.369 85.2619 288.482 85.873 288.772C86.4842 289.062 87.0025 289.516 87.37 290.084Z" fill="#40C4FF"/>
<path opacity="0.3" d="M87.37 290.084C86.66 291.644 85.26 296.084 87.19 299.914C88.49 302.504 89.1 305.024 88.4 307.164C87.7 309.304 79.62 305.914 78.63 304.164C77.6253 302.408 77.1043 300.417 77.12 298.394C77.05 296.614 77.39 295.444 77.2 294.104C77.01 292.764 76.2 290.844 76.65 289.574C77.2589 288.559 78.0812 287.689 79.06 287.024C80.06 286.264 80.74 285.404 81.25 285.704L80.92 286.254C81.2944 286.918 81.8098 287.491 82.43 287.934C82.68 288.134 82.52 289.314 82.85 289.444C83.18 289.574 83.25 288.614 83.91 288.444C84.5821 288.369 85.2619 288.482 85.873 288.772C86.4842 289.062 87.0025 289.516 87.37 290.084Z" fill="#0E0E0E"/>
<path d="M78.6299 304.184C79.2956 303.259 80.1607 302.496 81.1611 301.951C82.1616 301.405 83.2719 301.092 84.4099 301.034C88.1199 300.984 88.8199 302.544 89.1399 303.104C89.4599 303.664 90.7699 306.824 88.2199 308.274C86.3942 308.7 84.4803 308.533 82.7559 307.798C81.0315 307.062 79.5862 305.796 78.6299 304.184Z" fill="#FAFAFA"/>
<path d="M127.66 213.804C127.81 218.114 125.94 238.804 122.79 247.044C121.05 251.733 118.856 256.241 116.24 260.504C115.3 262.114 89.98 287.274 89.98 287.274C88.5085 287.251 87.0777 286.788 85.8714 285.945C84.665 285.102 83.7382 283.918 83.21 282.544C83.21 282.544 94.14 265.454 96.54 261.594C98.94 257.734 105.99 249.904 105.99 249.904L107.27 213.434L127.66 213.804Z" fill="#455A64"/>
<path d="M116.23 230.394C118.185 228.591 119.935 226.579 121.45 224.394C125.81 218.394 125.81 213.214 125.81 213.214L123.35 213.004L97.4899 214.704C97.3185 219.404 97.3886 224.111 97.6999 228.804C98.6999 240.504 106.7 262.804 106.7 262.804C106.56 264.414 107.52 270.804 109.05 276.804C111.47 286.264 117.22 302.034 117.22 302.034C117.22 302.034 122.55 302.034 124.6 299.654C124.6 299.654 120.6 267.964 119.6 259.654C118.57 250.664 116.23 230.394 116.23 230.394Z" fill="#455A64"/>
<path d="M118.91 254.154C118.91 254.154 116.91 233.074 116.23 230.394C116.23 230.394 121.08 228.544 122.57 226.854C121.508 228.744 119.934 230.297 118.03 231.334L118.91 254.154Z" fill="#37474F"/>
<path d="M103.4 252.904L106.71 262.904C106.71 262.904 106.98 266.984 107.51 269.754L106.11 271.174C105.663 268.532 105.539 265.846 105.74 263.174L103.4 252.904Z" fill="#37474F"/>
<path d="M123.84 201.584C119.84 188.584 119.08 175.584 118.32 172.254H118.57C123.76 172.524 126.57 174.654 127.76 179.764C128.58 183.434 130.69 196.234 132.04 201.884C133.23 206.884 134.84 213.044 136.76 216.884C137.082 217.534 137.629 218.046 138.3 218.324C140.3 219.084 141.15 220.074 142.7 221.204C143.89 222.074 144.79 222.204 144.7 222.544C144.572 222.951 144.295 223.294 143.923 223.504C143.552 223.714 143.114 223.775 142.7 223.674C141.785 223.486 140.895 223.191 140.05 222.794C140.92 224.228 142.014 225.515 143.29 226.604C146.2 229.104 146.63 230.884 141.81 231.784C138.81 232.354 136.05 230.924 132.58 224.674C131.259 222.396 130.103 220.027 129.12 217.584C126.82 211.174 125.05 205.514 123.84 201.584Z" fill="#FFA8A7"/>
<path d="M133.95 209.144L135.73 214.514C135.73 214.514 132.73 214.324 129.16 217.514C128.343 215.935 127.745 214.253 127.38 212.514C127.38 212.514 128.69 209.694 133.95 209.144Z" fill="#40C4FF"/>
<path opacity="0.45" d="M133.95 209.144L135.73 214.514C135.73 214.514 132.73 214.324 129.16 217.514C128.343 215.935 127.745 214.253 127.38 212.514C127.38 212.514 128.69 209.694 133.95 209.144Z" fill="#0E0E0E"/>
<path d="M117.58 172.254C117.58 172.254 121.58 171.544 124.22 173.164C126.86 174.784 128.39 178.024 129.41 184.664C130.43 191.304 131.6 197.894 132.57 201.284C134.12 206.744 134.95 208.014 133.95 209.144C133.95 209.144 129.08 210.574 127.38 212.544C126.453 211.745 125.761 210.707 125.38 209.544C124.44 207.244 122.06 197.924 121.03 193.694C120 189.464 117.17 175.774 117.58 172.254Z" fill="#40C4FF"/>
<path opacity="0.3" d="M117.58 172.254C117.58 172.254 121.58 171.544 124.22 173.164C126.86 174.784 128.39 178.024 129.41 184.664C130.43 191.304 131.6 197.894 132.57 201.284C134.12 206.744 134.95 208.014 133.95 209.144C133.95 209.144 129.08 210.574 127.38 212.544C126.453 211.745 125.761 210.707 125.38 209.544C124.44 207.244 122.06 197.924 121.03 193.694C120 189.464 117.17 175.774 117.58 172.254Z" fill="#0E0E0E"/>
<path d="M97.4099 216.664V220.144C97.4099 220.144 101.77 224.244 111.62 224.314C117.448 224.398 123.116 222.413 127.62 218.714L127.83 215.294L97.4099 216.664Z" fill="#40C4FF"/>
<path opacity="0.45" d="M97.4099 216.664V220.144C97.4099 220.144 101.77 224.244 111.62 224.314C117.448 224.398 123.116 222.413 127.62 218.714L127.83 215.294L97.4099 216.664Z" fill="#0E0E0E"/>
<path d="M127.41 183.024C126.85 178.354 124.8 172.674 117.58 172.254L108.26 172.524C105.95 173.084 103.39 173.524 100.98 174.354L96.4899 194.184C96.4899 194.184 95.0999 213.084 97.4199 216.664C104.01 221.014 118.52 222.044 127.77 215.294C129.92 210.994 127.96 187.654 127.41 183.024Z" fill="#455A64"/>
<path d="M127.41 183.024C126.85 178.354 124.8 172.674 117.58 172.254C117.58 172.254 119.94 177.524 117.07 180.974C114.848 180.466 112.762 179.481 110.958 178.088C109.154 176.694 107.673 174.926 106.62 172.904C104.77 173.324 102.83 173.744 100.98 174.354L96.4899 194.184C96.4899 194.184 95.0999 213.084 97.4199 216.664C104.01 221.014 118.52 222.044 127.77 215.294C129.92 210.994 127.96 187.654 127.41 183.024Z" fill="#40C4FF"/>
<path opacity="0.15" d="M127.41 183.024C126.85 178.354 124.8 172.674 117.58 172.254C117.58 172.254 119.94 177.524 117.07 180.974C114.848 180.466 112.762 179.481 110.958 178.088C109.154 176.694 107.673 174.926 106.62 172.904C104.77 173.324 102.83 173.744 100.98 174.354L96.4899 194.184C96.4899 194.184 95.0999 213.084 97.4199 216.664C104.01 221.014 118.52 222.044 127.77 215.294C129.92 210.994 127.96 187.654 127.41 183.024Z" fill="#0E0E0E"/>
<path d="M108.62 154.004C108.569 156.444 109.488 158.805 111.175 160.569C112.862 162.333 115.18 163.356 117.62 163.414C122.62 163.414 125.62 159.084 126.62 154.004C128.62 144.704 122.62 144.584 117.62 144.584C115.179 144.644 112.861 145.669 111.174 147.435C109.487 149.201 108.569 151.563 108.62 154.004Z" fill="#263238"/>
<path d="M104 157.804C104.513 160.469 105.164 163.106 105.95 165.704C106.305 166.386 106.917 166.901 107.65 167.134L107.55 162.364L104 157.804Z" fill="#263238"/>
<path d="M105.74 148.094C105.74 148.094 104.74 147.844 103.74 149.494C102.84 150.904 102.63 154.084 104.05 157.804L106.67 158.124L105.74 148.094Z" fill="#263238"/>
<path d="M104.78 149.464L101.58 149.524C101.555 149.315 101.574 149.104 101.635 148.903C101.696 148.701 101.799 148.515 101.936 148.356C102.074 148.197 102.243 148.069 102.433 147.979C102.623 147.889 102.83 147.839 103.04 147.834C103.482 147.838 103.906 148.008 104.228 148.309C104.55 148.611 104.747 149.024 104.78 149.464Z" fill="#263238"/>
<path d="M104.39 148.704L102.02 146.424C102.157 146.262 102.326 146.131 102.516 146.038C102.706 145.946 102.914 145.893 103.125 145.885C103.337 145.877 103.548 145.912 103.745 145.989C103.942 146.066 104.12 146.184 104.27 146.334C104.584 146.641 104.771 147.056 104.793 147.495C104.815 147.934 104.671 148.366 104.39 148.704Z" fill="#263238"/>
<path d="M107.4 158.124C106.87 158.444 106.13 157.404 105.48 156.694C105.207 156.42 104.867 156.221 104.494 156.117C104.121 156.014 103.728 156.009 103.352 156.104C102.977 156.199 102.633 156.39 102.353 156.658C102.074 156.927 101.87 157.263 101.76 157.634C100.69 159.984 102.5 162.224 104 162.974C106.7 164.314 107.55 162.364 107.55 162.364L107.77 173.104C109.12 176.824 119.28 177.544 117.08 172.824V169.554C118.352 169.766 119.643 169.837 120.93 169.764C123.04 169.424 124.36 167.694 125 165.324C126 161.514 126.41 158.444 125.54 150.954C124.54 142.744 115.42 142.654 110.47 145.904C105.52 149.154 107.4 158.124 107.4 158.124Z" fill="#FFA8A7"/>
<path d="M118.83 149.664C116.64 149.454 114.47 149.004 112.28 148.844C111.806 148.782 111.325 148.806 110.86 148.914C109.17 149.364 109.39 151.324 109.12 152.684C108.66 155.034 108.28 159.024 107.4 159.044C107.14 159.044 106.13 157.314 105.48 156.694C105.122 156.164 104.921 155.543 104.9 154.904C104.741 153.927 104.63 152.942 104.57 151.954C104.5 151.124 104.42 150.274 104.42 149.434C104.383 148.492 104.456 147.549 104.64 146.624C104.848 145.834 105.25 145.109 105.81 144.514L105.98 144.334C107.08 143.18 108.417 142.279 109.9 141.694C112.028 140.894 114.262 140.409 116.53 140.254C118.796 140.096 121.052 139.823 123.29 139.434C123.418 139.399 123.552 139.399 123.68 139.434C123.772 139.482 123.85 139.554 123.906 139.642C123.962 139.729 123.995 139.83 124 139.934C124.091 140.452 124.033 140.986 123.833 141.473C123.633 141.959 123.299 142.379 122.87 142.684C124.38 142.804 126.12 142.014 127.58 141.624C127.818 141.529 128.082 141.529 128.32 141.624C128.464 141.724 128.567 141.874 128.61 142.044C128.7 142.442 128.7 142.856 128.61 143.254C128.472 144.458 128.024 145.605 127.31 146.584C126.178 148.048 124.586 149.087 122.79 149.534C121.484 149.778 120.149 149.822 118.83 149.664Z" fill="#263238"/>
<path d="M117.07 169.554C114.901 169.127 112.778 168.494 110.73 167.664C109.756 167.129 108.965 166.314 108.46 165.324C108.708 166.318 109.146 167.256 109.75 168.084C110.95 169.684 117.07 170.854 117.07 170.854V169.554Z" fill="#F28F8F"/>
<path d="M115.94 156.904C115.928 157.087 115.863 157.262 115.753 157.409C115.643 157.555 115.493 157.666 115.32 157.728C115.148 157.79 114.961 157.801 114.783 157.758C114.604 157.715 114.443 157.621 114.317 157.488C114.191 157.354 114.108 157.187 114.076 157.006C114.044 156.826 114.066 156.64 114.139 156.472C114.211 156.303 114.331 156.16 114.485 156.059C114.638 155.958 114.817 155.904 115 155.904C115.255 155.919 115.494 156.031 115.669 156.217C115.843 156.403 115.94 156.649 115.94 156.904Z" fill="#263238"/>
<path d="M114.43 152.844L112.43 154.004C112.284 153.717 112.252 153.387 112.339 153.077C112.426 152.768 112.626 152.502 112.9 152.334C113.033 152.261 113.179 152.217 113.33 152.203C113.481 152.19 113.633 152.207 113.776 152.255C113.92 152.303 114.052 152.38 114.165 152.481C114.277 152.583 114.367 152.706 114.43 152.844Z" fill="#263238"/>
<path d="M116.64 163.664L118.79 164.504C118.748 164.652 118.676 164.79 118.579 164.91C118.482 165.029 118.361 165.127 118.223 165.197C118.086 165.268 117.936 165.309 117.783 165.319C117.629 165.329 117.475 165.307 117.33 165.254C117.037 165.124 116.803 164.888 116.675 164.594C116.547 164.299 116.535 163.967 116.64 163.664Z" fill="#F28F8F"/>
<path d="M124.57 153.704L122.73 152.234C122.813 152.105 122.921 151.996 123.049 151.912C123.177 151.828 123.321 151.772 123.472 151.748C123.623 151.723 123.777 151.73 123.925 151.77C124.073 151.809 124.211 151.878 124.33 151.974C124.576 152.182 124.736 152.474 124.78 152.793C124.825 153.112 124.75 153.437 124.57 153.704Z" fill="#263238"/>
<path d="M123.76 156.624C123.748 156.807 123.683 156.982 123.573 157.129C123.463 157.275 123.312 157.386 123.14 157.449C122.968 157.511 122.781 157.521 122.602 157.478C122.424 157.435 122.262 157.341 122.137 157.208C122.011 157.074 121.928 156.907 121.896 156.726C121.864 156.546 121.886 156.36 121.959 156.192C122.031 156.024 122.151 155.88 122.304 155.779C122.457 155.678 122.637 155.624 122.82 155.624C123.075 155.639 123.314 155.751 123.489 155.937C123.663 156.123 123.76 156.369 123.76 156.624Z" fill="#263238"/>
<path d="M118.73 155.834L118.84 161.774L122.21 161.004L118.73 155.834Z" fill="#F28F8F"/>
<path d="M103.62 224.034C102.22 223.034 101.83 222.254 100.01 221.364C99.22 220.978 98.5341 220.409 98.0099 219.704C95.8499 216.204 93.1999 208.704 92.1999 204.524C95.4799 198.734 99.8899 189.324 99.8899 189.324C99.8899 189.324 106.07 183.704 100.95 174.324C97.0999 174.324 93.0699 177.494 91.7699 180.594C89.3299 186.444 85.5099 194.594 83.4199 203.144C83.12 204.25 83.12 205.417 83.4199 206.524C84.5499 210.524 88.1799 217.294 91.4199 222.744C93.0248 225.345 94.7812 227.849 96.6799 230.244C97.4481 231.086 98.2953 231.853 99.2099 232.534C100.385 232.116 101.426 231.39 102.223 230.431C103.02 229.471 103.544 228.315 103.74 227.084C103.05 226.628 102.407 226.106 101.82 225.524C102.511 225.943 103.28 226.219 104.08 226.334C105.28 226.334 105.93 225.894 105.91 225.464C105.89 225.034 104.8 224.904 103.62 224.034Z" fill="#FFA8A7"/>
<path d="M103.18 173.714C99.9899 173.804 95.5999 173.464 92.4499 178.304C89.2999 183.144 83.3199 199.594 82.4499 202.064C81.5799 204.534 82.7799 209.874 85.0299 213.434C87.2799 216.994 88.3799 217.294 88.3799 217.294C88.3799 217.294 91.3799 213.514 95.1499 213.474C95.1499 213.474 95.3799 212.584 94.4999 209.164C93.4999 205.414 93.1499 204.234 93.1499 204.234L100.55 189.904C102.154 187.314 103.178 184.407 103.55 181.384C104.42 175.484 103.18 173.714 103.18 173.714Z" fill="#40C4FF"/>
<path opacity="0.3" d="M103.18 173.714C99.9899 173.804 95.5999 173.464 92.4499 178.304C89.2999 183.144 83.3199 199.594 82.4499 202.064C81.5799 204.534 82.7799 209.874 85.0299 213.434C87.2799 216.994 88.3799 217.294 88.3799 217.294C88.3799 217.294 91.3799 213.514 95.1499 213.474C95.1499 213.474 95.3799 212.584 94.4999 209.164C93.4999 205.414 93.1499 204.234 93.1499 204.234L100.55 189.904C102.154 187.314 103.178 184.407 103.55 181.384C104.42 175.484 103.18 173.714 103.18 173.714Z" fill="#0E0E0E"/>
<path d="M88.35 217.294L91.14 222.224C91.14 222.224 93.39 218.434 97.41 218.604L95.12 213.474C95.12 213.474 91.22 212.774 88.35 217.294Z" fill="#40C4FF"/>
<path opacity="0.45" d="M88.35 217.294L91.14 222.224C91.14 222.224 93.39 218.434 97.41 218.604L95.12 213.474C95.12 213.474 91.22 212.774 88.35 217.294Z" fill="#0E0E0E"/>
<path d="M117.07 180.974C113.52 179.284 109.24 176.044 108.65 174.354C108.006 173.045 107.684 171.602 107.71 170.144C105.271 170.211 102.879 170.826 100.71 171.944C100.344 172.138 100.037 172.426 99.8172 172.777C99.5978 173.128 99.4746 173.53 99.46 173.944L103.21 173.754C103.649 173.716 104.09 173.777 104.502 173.933C104.914 174.089 105.286 174.335 105.59 174.654C106.41 175.454 107.26 177.744 110.84 179.604C112.768 180.578 114.911 181.05 117.07 180.974Z" fill="#40C4FF"/>
<path opacity="0.35" d="M117.07 180.974C113.52 179.284 109.24 176.044 108.65 174.354C108.006 173.045 107.684 171.602 107.71 170.144C105.271 170.211 102.879 170.826 100.71 171.944C100.344 172.138 100.037 172.426 99.8172 172.777C99.5978 173.128 99.4746 173.53 99.46 173.944L103.21 173.754C103.649 173.716 104.09 173.777 104.502 173.933C104.914 174.089 105.286 174.335 105.59 174.654C106.41 175.454 107.26 177.744 110.84 179.604C112.768 180.578 114.911 181.05 117.07 180.974Z" fill="#0E0E0E"/>
<path d="M117.07 180.974C118.537 180.111 119.612 178.713 120.07 177.074C120.496 175.437 120.359 173.704 119.68 172.154C119.412 171.672 119.041 171.256 118.593 170.934C118.145 170.613 117.632 170.394 117.09 170.294V172.294C117.61 173.044 117.952 173.902 118.09 174.804C118.22 176.174 118.49 178.844 117.07 180.974Z" fill="#40C4FF"/>
<path opacity="0.35" d="M117.07 180.974C118.537 180.111 119.612 178.713 120.07 177.074C120.496 175.437 120.359 173.704 119.68 172.154C119.412 171.672 119.041 171.256 118.593 170.934C118.145 170.613 117.632 170.394 117.09 170.294V172.294C117.61 173.044 117.952 173.902 118.09 174.804C118.22 176.174 118.49 178.844 117.07 180.974Z" fill="#0E0E0E"/>
<path d="M116.23 197.254C116.192 197.25 116.155 197.239 116.122 197.221C116.089 197.203 116.06 197.178 116.036 197.148C116.013 197.118 115.996 197.083 115.986 197.047C115.976 197.01 115.974 196.972 115.98 196.934C116.598 191.912 116.5 186.828 115.69 181.834C115.689 181.764 115.714 181.696 115.758 181.641C115.803 181.587 115.865 181.55 115.934 181.537C116.003 181.524 116.075 181.535 116.136 181.57C116.197 181.604 116.245 181.658 116.27 181.724C117.058 186.782 117.132 191.926 116.49 197.004C116.481 197.069 116.451 197.129 116.404 197.174C116.356 197.22 116.295 197.248 116.23 197.254Z" fill="#455A64"/>
<path d="M115.8 195.794C115.803 195.644 115.864 195.502 115.97 195.397C116.077 195.293 116.22 195.234 116.37 195.234C116.507 195.252 116.632 195.319 116.723 195.423C116.814 195.527 116.865 195.661 116.865 195.799C116.865 195.937 116.814 196.07 116.723 196.174C116.632 196.278 116.507 196.346 116.37 196.364C116.219 196.364 116.074 196.304 115.967 196.197C115.86 196.09 115.8 195.945 115.8 195.794Z" fill="#455A64"/>
<path d="M119.67 200.324C119.632 200.32 119.595 200.309 119.561 200.291C119.527 200.273 119.497 200.248 119.473 200.218C119.449 200.188 119.431 200.154 119.42 200.117C119.409 200.081 119.406 200.042 119.41 200.004C120.081 193.674 119.624 187.275 118.06 181.104C118.041 181.03 118.051 180.951 118.088 180.884C118.126 180.817 118.187 180.767 118.26 180.744C118.297 180.733 118.335 180.73 118.373 180.734C118.411 180.739 118.448 180.75 118.482 180.769C118.515 180.788 118.545 180.813 118.568 180.843C118.592 180.873 118.61 180.907 118.62 180.944C120.202 187.186 120.666 193.66 119.99 200.064C119.986 200.102 119.975 200.139 119.957 200.173C119.939 200.207 119.914 200.237 119.884 200.261C119.854 200.285 119.82 200.303 119.783 200.314C119.747 200.325 119.708 200.328 119.67 200.324Z" fill="#455A64"/>
<path d="M119.22 198.904C119.22 198.755 119.279 198.613 119.384 198.508C119.489 198.403 119.631 198.344 119.78 198.344C119.929 198.344 120.073 198.402 120.18 198.507C120.286 198.612 120.347 198.754 120.35 198.904C120.347 199.054 120.287 199.198 120.18 199.304C120.074 199.41 119.93 199.471 119.78 199.474C119.631 199.471 119.488 199.41 119.383 199.303C119.279 199.197 119.22 199.053 119.22 198.904Z" fill="#455A64"/>
</svg>
