<svg width="151" height="40" viewBox="0 0 151 40" fill="none" xmlns="http://www.w3.org/2000/svg">
<path d="M147.477 24.1717C147.008 24.1717 146.544 24.1087 146.086 23.9828C145.639 23.8568 145.226 23.685 144.848 23.4673C144.47 23.2383 144.144 22.9634 143.869 22.6427L145.209 21.2855C145.496 21.6062 145.828 21.8467 146.206 22.007C146.584 22.1674 147.002 22.2475 147.46 22.2475C147.827 22.2475 148.102 22.196 148.285 22.0929C148.48 21.9898 148.577 21.8352 148.577 21.6291C148.577 21.4 148.474 21.2225 148.268 21.0965C148.073 20.9705 147.815 20.8674 147.495 20.7872C147.174 20.6956 146.836 20.5982 146.481 20.4952C146.137 20.3806 145.805 20.2375 145.484 20.0657C145.163 19.8824 144.9 19.6361 144.694 19.3269C144.499 19.0062 144.402 18.5939 144.402 18.0899C144.402 17.5631 144.528 17.1049 144.78 16.7155C145.043 16.3261 145.415 16.0226 145.897 15.8049C146.378 15.5873 146.945 15.4785 147.598 15.4785C148.285 15.4785 148.904 15.5988 149.453 15.8393C150.015 16.0798 150.479 16.4406 150.845 16.9217L149.488 18.2789C149.236 17.9697 148.949 17.7463 148.629 17.6089C148.319 17.4714 147.981 17.4027 147.615 17.4027C147.283 17.4027 147.025 17.4542 146.842 17.5573C146.67 17.6604 146.584 17.8036 146.584 17.9868C146.584 18.193 146.681 18.3534 146.876 18.4679C147.082 18.5824 147.346 18.6855 147.666 18.7771C147.987 18.8573 148.319 18.9547 148.663 19.0692C149.018 19.1723 149.35 19.3212 149.66 19.5159C149.98 19.7106 150.238 19.9683 150.433 20.289C150.639 20.6097 150.742 21.022 150.742 21.526C150.742 22.3392 150.45 22.9863 149.866 23.4673C149.282 23.9369 148.485 24.1717 147.477 24.1717Z" fill="#FF5200"/>
<path d="M138.742 24.155C137.906 24.155 137.15 23.966 136.474 23.588C135.81 23.1986 135.277 22.6775 134.876 22.0246C134.487 21.3603 134.292 20.6215 134.292 19.8083C134.292 18.9951 134.487 18.2678 134.876 17.6264C135.266 16.9736 135.798 16.4582 136.474 16.0802C137.15 15.6908 137.9 15.4961 138.725 15.4961C139.573 15.4961 140.329 15.6908 140.993 16.0802C141.669 16.4582 142.202 16.9736 142.591 17.6264C142.981 18.2678 143.176 18.9951 143.176 19.8083C143.176 20.6215 142.981 21.3603 142.591 22.0246C142.202 22.6775 141.669 23.1986 140.993 23.588C140.329 23.966 139.579 24.155 138.742 24.155ZM138.725 22.059C139.149 22.059 139.521 21.9673 139.842 21.7841C140.174 21.5894 140.426 21.3259 140.598 20.9938C140.782 20.6502 140.873 20.2608 140.873 19.8255C140.873 19.3903 140.782 19.0066 140.598 18.6744C140.415 18.3423 140.163 18.0846 139.842 17.9013C139.521 17.7066 139.149 17.6093 138.725 17.6093C138.313 17.6093 137.946 17.7066 137.626 17.9013C137.305 18.0846 137.053 18.3423 136.869 18.6744C136.686 19.0066 136.595 19.3903 136.595 19.8255C136.595 20.2608 136.686 20.6502 136.869 20.9938C137.053 21.3259 137.305 21.5894 137.626 21.7841C137.946 21.9673 138.313 22.059 138.725 22.059Z" fill="#FF5200"/>
<path d="M130.059 24.1717C129.589 24.1717 129.126 24.1087 128.667 23.9828C128.221 23.8568 127.808 23.685 127.43 23.4673C127.052 23.2383 126.726 22.9634 126.451 22.6427L127.791 21.2855C128.077 21.6062 128.41 21.8467 128.788 22.007C129.166 22.1674 129.584 22.2475 130.042 22.2475C130.409 22.2475 130.683 22.196 130.867 22.0929C131.062 21.9898 131.159 21.8352 131.159 21.6291C131.159 21.4 131.056 21.2225 130.85 21.0965C130.655 20.9705 130.397 20.8674 130.076 20.7872C129.756 20.6956 129.418 20.5982 129.063 20.4952C128.719 20.3806 128.387 20.2375 128.066 20.0657C127.745 19.8824 127.482 19.6361 127.275 19.3269C127.081 19.0062 126.983 18.5939 126.983 18.0899C126.983 17.5631 127.109 17.1049 127.361 16.7155C127.625 16.3261 127.997 16.0226 128.478 15.8049C128.959 15.5873 129.526 15.4785 130.179 15.4785C130.867 15.4785 131.485 15.5988 132.035 15.8393C132.597 16.0798 133.061 16.4406 133.427 16.9217L132.07 18.2789C131.818 17.9697 131.531 17.7463 131.21 17.6089C130.901 17.4714 130.563 17.4027 130.197 17.4027C129.864 17.4027 129.607 17.4542 129.423 17.5573C129.252 17.6604 129.166 17.8036 129.166 17.9868C129.166 18.193 129.263 18.3534 129.458 18.4679C129.664 18.5824 129.927 18.6855 130.248 18.7771C130.569 18.8573 130.901 18.9547 131.245 19.0692C131.6 19.1723 131.932 19.3212 132.241 19.5159C132.562 19.7106 132.82 19.9683 133.015 20.289C133.221 20.6097 133.324 21.022 133.324 21.526C133.324 22.3392 133.032 22.9863 132.448 23.4673C131.863 23.9369 131.067 24.1717 130.059 24.1717Z" fill="#FF5200"/>
<path d="M122.944 23.9828V15.6847H125.213V23.9828H122.944ZM124.078 14.3446C123.712 14.3446 123.408 14.2244 123.168 13.9838C122.927 13.7319 122.807 13.4226 122.807 13.0561C122.807 12.701 122.927 12.3975 123.168 12.1455C123.408 11.8936 123.712 11.7676 124.078 11.7676C124.456 11.7676 124.76 11.8936 124.989 12.1455C125.23 12.3975 125.35 12.701 125.35 13.0561C125.35 13.4226 125.23 13.7319 124.989 13.9838C124.76 14.2244 124.456 14.3446 124.078 14.3446Z" fill="#FF5200"/>
<path d="M114.315 19.498V17.591H117.116C117.482 17.591 117.814 17.5165 118.112 17.3676C118.41 17.2187 118.645 17.0068 118.817 16.732C118.989 16.4456 119.075 16.102 119.075 15.7011C119.075 15.3117 118.989 14.9738 118.817 14.6875C118.645 14.4012 118.41 14.1835 118.112 14.0347C117.814 13.8858 117.482 13.8113 117.116 13.8113H114.315V11.9043H117.356C118.124 11.9043 118.811 12.0589 119.418 12.3682C120.037 12.6774 120.524 13.1184 120.879 13.691C121.234 14.2523 121.411 14.9223 121.411 15.7011C121.411 16.48 121.234 17.1557 120.879 17.7284C120.524 18.2896 120.037 18.7249 119.418 19.0341C118.811 19.3434 118.124 19.498 117.356 19.498H114.315ZM112.596 23.982V11.9043H114.933V23.982H112.596Z" fill="#FF5200"/>
<path d="M107.029 24.155C106.158 24.155 105.385 23.9717 104.709 23.6052C104.033 23.2272 103.495 22.7118 103.094 22.059C102.705 21.4061 102.51 20.6616 102.51 19.8255C102.51 19.0009 102.699 18.2678 103.077 17.6264C103.466 16.9736 103.993 16.4582 104.658 16.0802C105.322 15.6908 106.061 15.4961 106.874 15.4961C107.676 15.4961 108.381 15.6794 108.988 16.0459C109.606 16.4009 110.088 16.8934 110.431 17.5234C110.786 18.1419 110.964 18.8462 110.964 19.6365C110.964 19.7854 110.952 19.9401 110.93 20.1004C110.918 20.2493 110.889 20.4211 110.844 20.6158L103.867 20.633V18.9493L109.795 18.9322L108.885 19.6365C108.862 19.144 108.77 18.7317 108.61 18.3996C108.461 18.0674 108.238 17.8154 107.94 17.6436C107.653 17.4604 107.298 17.3687 106.874 17.3687C106.428 17.3687 106.038 17.4718 105.706 17.678C105.374 17.8727 105.116 18.1533 104.933 18.5198C104.761 18.8749 104.675 19.2987 104.675 19.7912C104.675 20.2951 104.766 20.7361 104.95 21.114C105.145 21.4806 105.419 21.7669 105.775 21.9731C106.13 22.1678 106.542 22.2651 107.012 22.2651C107.436 22.2651 107.819 22.1964 108.163 22.059C108.507 21.9101 108.805 21.6924 109.057 21.4061L110.38 22.729C109.979 23.1986 109.486 23.5536 108.902 23.7942C108.329 24.0347 107.705 24.155 107.029 24.155Z" fill="#FF5200"/>
<path d="M96.146 23.9836V15.6855H98.397V23.9836H96.146ZM98.397 19.3964L97.5207 18.8123C97.6238 17.7929 97.9216 16.9912 98.4142 16.407C98.9068 15.8115 99.617 15.5137 100.545 15.5137C100.946 15.5137 101.307 15.5824 101.627 15.7198C101.948 15.8458 102.24 16.0577 102.504 16.3555L101.095 17.9705C100.969 17.833 100.814 17.7299 100.631 17.6612C100.459 17.5925 100.259 17.5581 100.029 17.5581C99.5483 17.5581 99.1531 17.7127 98.8438 18.022C98.5459 18.3198 98.397 18.7779 98.397 19.3964Z" fill="#FF5200"/>
<path d="M90.6873 23.9818V12.2305H92.9383V23.9818H90.6873ZM88.7456 17.6594V15.6837H94.88V17.6594H88.7456Z" fill="#FF5200"/>
<path d="M85.5037 23.9836V19.2246C85.5037 18.7321 85.3491 18.3312 85.0398 18.022C84.7305 17.7127 84.3296 17.5581 83.837 17.5581C83.5162 17.5581 83.2298 17.6268 82.9778 17.7643C82.7258 17.9017 82.5253 18.0964 82.3764 18.3484C82.2389 18.6004 82.1702 18.8925 82.1702 19.2246L81.2938 18.7779C81.2938 18.1251 81.4313 17.5581 81.7062 17.0771C81.9926 16.5846 82.3821 16.2009 82.8747 15.926C83.3787 15.6511 83.9458 15.5137 84.5758 15.5137C85.183 15.5137 85.7271 15.6683 86.2083 15.9775C86.6894 16.2753 87.0674 16.6705 87.3423 17.163C87.6173 17.644 87.7547 18.1652 87.7547 18.7264V23.9836H85.5037ZM79.9192 23.9836V15.6855H82.1702V23.9836H79.9192Z" fill="#FF5200"/>
<path d="M69.823 23.982V11.9043H72.1599V23.982H69.823ZM71.5413 23.982V21.9204H78.2256V23.982H71.5413ZM71.5413 18.8108V16.8179H77.6242V18.8108H71.5413ZM71.5413 13.9659V11.9043H78.1397V13.9659H71.5413Z" fill="#FF5200"/>
<path d="M0.845215 23.268L29.6057 39.8702V33.2291L0.845215 16.627V23.268Z" fill="#001F54"/>
<path d="M29.6057 33.2307L46.862 23.2695V29.9106L29.6057 39.8717V33.2307Z" fill="#001F54"/>
<path d="M23.8535 23.268L35.3577 16.627L41.1098 19.9479L29.6056 26.5889L23.8535 23.268Z" fill="#001F54"/>
<path d="M12.3494 16.6285V9.98828L18.1015 13.3084V19.9494L12.3494 16.6285Z" fill="#001F54"/>
<path d="M18.1016 13.3071L29.6057 6.66602V13.3071L18.1016 19.9481V13.3071Z" fill="#001F54"/>
<path d="M41.1099 13.3071V19.9481L29.6057 13.3071V6.66602L41.1099 13.3071Z" fill="#001F54"/>
<path d="M35.3577 3.34634L41.1098 0.0253906L46.8618 3.34634L41.1098 6.66643L35.3577 3.34634Z" fill="#001F54"/>
<path d="M41.1099 13.3068L58.3661 3.3457V16.6269L46.8619 23.268L41.1099 19.9479V13.3068Z" fill="#001F54"/>
</svg>
